<?xml version="1.0" standalone="no"?>
<!DOCTYPE svg PUBLIC "-//W3C//DTD SVG 20010904//EN"
 "http://www.w3.org/TR/2001/REC-SVG-20010904/DTD/svg10.dtd">
<svg version="1.0" xmlns="http://www.w3.org/2000/svg"
 width="74.000000pt" height="109.000000pt" viewBox="0 0 74.000000 109.000000"
 preserveAspectRatio="xMidYMid meet">

<g transform="translate(0.000000,109.000000) scale(0.100000,-0.100000)"
fill="#000000" stroke="none">
<path d="M310 976 c-104 -22 -189 -110 -208 -216 -18 -100 10 -216 96 -386 43
-85 158 -264 171 -264 21 0 133 178 196 313 117 251 99 423 -56 522 -20 13
-54 27 -75 30 -22 4 -46 8 -54 10 -8 2 -40 -2 -70 -9z m130 -134 c52 -26 80
-74 80 -138 0 -48 -4 -58 -36 -94 -98 -108 -264 -48 -264 95 0 88 65 155 150
155 19 0 51 -8 70 -18z"/>
</g>
</svg>
